<?xml version="1.0" standalone="no"?>
<!DOCTYPE svg PUBLIC "-//W3C//DTD SVG 20010904//EN"
 "http://www.w3.org/TR/2001/REC-SVG-20010904/DTD/svg10.dtd">
<svg version="1.0" xmlns="http://www.w3.org/2000/svg"
 width="394.000000pt" height="394.000000pt" viewBox="0 0 394.000000 394.000000"
 preserveAspectRatio="xMidYMid meet">
<metadata>
Created by potrace 1.14, written by Peter Selinger 2001-2017
</metadata>
<g transform="translate(0.000000,394.000000) scale(0.100000,-0.100000)"
fill="#000000" stroke="none">
<path d="M1620 3656 c0 -2 16 -39 36 -82 133 -291 150 -445 62 -555 -7 -9 -52
-44 -100 -78 -203 -144 -347 -330 -393 -510 -19 -76 -18 -211 2 -291 72 -273
321 -464 603 -462 105 0 163 13 254 56 173 81 295 226 342 407 18 69 24 232
11 334 -23 194 -94 388 -198 543 -16 24 -29 45 -29 47 0 3 -6 13 -14 22 -8 10
-41 52 -74 93 -70 88 -250 268 -372 370 -125 106 -130 110 -130 106z"/>
<path d="M2940 1864 c-254 -34 -451 -98 -715 -233 -225 -116 -347 -133 -845
-121 -158 3 -168 2 -180 -21 -32 -59 4 -172 77 -245 89 -89 265 -178 418 -211
131 -28 434 -15 620 27 68 16 63 10 -18 -21 -135 -50 -365 -103 -502 -115
-533 -46 -918 115 -1235 516 -155 196 -304 285 -423 255 -88 -22 -94 -63 -32
-204 82 -187 197 -352 353 -507 61 -62 121 -116 132 -119 11 -3 20 -10 20 -14
0 -10 143 -106 238 -160 116 -65 327 -152 452 -186 212 -59 447 -109 565 -121
28 -3 88 -9 135 -13 87 -9 458 -7 520 3 19 3 55 8 80 11 202 25 428 93 605
181 109 54 180 106 290 212 452 437 503 824 130 995 -57 26 -171 63 -235 76
-30 6 -66 14 -80 17 -54 11 -280 10 -370 -2z"/>
<path d="M375 1716 l-50 -11 34 -16 c43 -22 128 -92 170 -143 76 -93 195 -228
251 -286 51 -54 171 -139 260 -184 50 -26 93 -46 96 -44 2 3 -19 24 -48 49
-67 57 -128 141 -182 250 -77 154 -170 273 -262 334 -85 57 -170 73 -269 51z"/>
<path d="M665 1701 c87 -50 186 -176 280 -356 60 -116 127 -215 159 -235 14
-9 12 -4 -7 22 -13 18 -38 65 -55 103 -27 63 -41 106 -89 282 -36 130 -134
208 -268 212 l-70 2 50 -30z"/>
</g>
</svg>
